<?xml version="1.0" encoding="UTF-8" standalone="yes"?>
<!-- Created with sK1/UniConvertor (http://sk1project.org/) -->
<svg xmlns="http://www.w3.org/2000/svg" xmlns:xlink="http://www.w3.org/1999/xlink"
  width="595.276pt" height="841.89pt" viewBox="0 0 595.276 841.89"
  fill-rule="evenodd">
<g>
<path style="stroke:#00ffff; stroke-width:0.850394; stroke-linejoin:round; stroke-linecap:round; fill:none" d="M 407.812 699.464C 407.812 698.829 407.297 698.313 406.661 698.313C 406.026 698.313 405.51 698.829 405.51 699.464C 405.51 700.1 406.026 700.616 406.661 700.616C 407.297 700.616 407.812 700.1 407.812 699.464z"/>
<path style="stroke:#00ffff; stroke-width:0.850394; stroke-linejoin:round; stroke-linecap:round; fill:none" d="M 491.217 699.464C 491.217 698.829 490.701 698.313 490.065 698.313C 489.43 698.313 488.914 698.829 488.914 699.464C 488.914 700.1 489.43 700.616 490.065 700.616C 490.701 700.616 491.217 700.1 491.217 699.464z"/>
<path style="stroke:#000000; stroke-width:0.850394; stroke-linejoin:round; stroke-linecap:round; fill:none" d="M 490.037 727.371L 490.037 757.137L 493.313 760.414L 499.872 760.414L 503.148 757.137L 503.148 727.371L 499.872 724.095L 493.313 724.095L 490.037 727.371z"/>
<path style="stroke:#000000; stroke-width:0.850394; stroke-linejoin:round; stroke-linecap:round; fill:none" d="M 535.365 696.185L 535.365 702.743L 538.642 706.02L 561.156 706.02L 564.432 702.743L 564.432 696.185L 561.156 692.909L 538.642 692.909L 535.365 696.185z"/>
<path style="stroke:#00ffff; stroke-width:0.850394; stroke-linejoin:round; stroke-linecap:round; fill:none" d="M 497.744 712.882C 497.744 712.246 497.228 711.73 496.593 711.73C 495.957 711.73 495.441 712.246 495.441 712.882C 495.441 713.517 495.957 714.033 496.593 714.033C 497.228 714.033 497.744 713.517 497.744 712.882z"/>
<path style="stroke:#00ffff; stroke-width:0.850394; stroke-linejoin:round; stroke-linecap:round; fill:none" d="M 430.295 769.451C 430.295 768.816 429.779 768.3 429.144 768.3C 428.508 768.3 427.993 768.816 427.993 769.451C 427.993 770.087 428.508 770.603 429.144 770.603C 429.779 770.603 430.295 770.087 430.295 769.451z"/>
<path style="stroke:#00ffff; stroke-width:0.850394; stroke-linejoin:round; stroke-linecap:round; fill:none" d="M 430.295 712.882C 430.295 712.246 429.779 711.73 429.144 711.73C 428.508 711.73 427.993 712.246 427.993 712.882C 427.993 713.517 428.508 714.033 429.144 714.033C 429.779 714.033 430.295 713.517 430.295 712.882z"/>
<path style="stroke:#00ffff; stroke-width:0.850394; stroke-linejoin:round; stroke-linecap:round; fill:none" d="M 520.227 699.464C 520.227 698.829 519.711 698.313 519.075 698.313C 518.44 698.313 517.924 698.829 517.924 699.464C 517.924 700.1 518.44 700.616 519.075 700.616C 519.711 700.616 520.227 700.1 520.227 699.464z"/>
<path style="stroke:#000000; stroke-width:0.850394; stroke-linejoin:round; stroke-linecap:round; fill:none" d="M 435.7 757.137L 435.7 727.371L 432.423 724.095L 425.865 724.095L 422.588 727.371L 422.588 757.137L 425.865 760.414L 432.423 760.414L 435.7 757.137z"/>
<path style="stroke:#000000; stroke-width:0.850394; stroke-linejoin:round; stroke-linecap:round; fill:none" d="M 364.581 706.02L 387.095 706.02L 390.371 702.743L 390.371 696.185L 387.095 692.909L 364.581 692.909L 361.305 696.185L 361.305 702.743L 364.581 706.02z"/>
<path style="stroke:#00ffff; stroke-width:0.850394; stroke-linejoin:round; stroke-linecap:round; fill:none" d="M 436.823 699.464C 436.823 698.829 436.307 698.313 435.671 698.313C 435.036 698.313 434.52 698.829 434.52 699.464C 434.52 700.1 435.036 700.616 435.671 700.616C 436.307 700.616 436.823 700.1 436.823 699.464z"/>
<path style="stroke:#00ffff; stroke-width:0.850394; stroke-linejoin:round; stroke-linecap:round; fill:none" d="M 497.744 769.451C 497.744 768.816 497.228 768.3 496.593 768.3C 495.957 768.3 495.441 768.816 495.441 769.451C 495.441 770.087 495.957 770.603 496.593 770.603C 497.228 770.603 497.744 770.087 497.744 769.451z"/>
<path style="stroke:#000000; stroke-width:0.850394; stroke-linejoin:round; stroke-linecap:round; fill:none" d="M 412.229 548.378C 412.229 543.974 408.655 540.4 404.252 540.4C 399.848 540.4 396.274 543.974 396.274 548.378C 396.274 552.781 399.848 556.356 404.252 556.356C 408.655 556.356 412.229 552.781 412.229 548.378z"/>
<path style="stroke:#000000; stroke-width:0.850394; stroke-linejoin:round; stroke-linecap:round; fill:none" d="M 412.229 665.611C 412.229 661.208 408.655 657.633 404.252 657.633C 399.848 657.633 396.274 661.208 396.274 665.611C 396.274 670.015 399.848 673.589 404.252 673.589C 408.655 673.589 412.229 670.015 412.229 665.611z"/>
<path style="stroke:#000000; stroke-width:0.850394; stroke-linejoin:round; stroke-linecap:round; fill:none" d="M 529.463 548.378C 529.463 543.974 525.888 540.4 521.485 540.4C 517.081 540.4 513.507 543.974 513.507 548.378C 513.507 552.781 517.081 556.356 521.485 556.356C 525.888 556.356 529.463 552.781 529.463 548.378z"/>
<path style="stroke:#000000; stroke-width:0.850394; stroke-linejoin:round; stroke-linecap:round; fill:none" d="M 529.463 665.611C 529.463 661.208 525.888 657.633 521.485 657.633C 517.081 657.633 513.507 661.208 513.507 665.611C 513.507 670.015 517.081 673.589 521.485 673.589C 525.888 673.589 529.463 670.015 529.463 665.611z"/>
<path style="stroke:#000000; stroke-width:0.850394; stroke-linejoin:round; stroke-linecap:round; fill:none" d="M 506.383 606.995C 506.383 582.975 486.887 563.479 462.868 563.479C 438.849 563.479 419.353 582.975 419.353 606.995C 419.353 631.014 438.849 650.51 462.868 650.51C 486.887 650.51 506.383 631.014 506.383 606.995z"/>
<path style="stroke:#000000; stroke-width:0.850394; stroke-linejoin:round; stroke-linecap:round; fill:none" d="M 644.182 606.995C 644.182 506.915 562.948 425.681 462.868 425.681C 362.789 425.681 281.555 506.915 281.555 606.995C 281.555 707.074 362.789 788.308 462.868 788.308C 562.948 788.308 644.182 707.074 644.182 606.995z"/>
<path style="stroke:#ffff00; stroke-width:0.850394; stroke-linejoin:round; stroke-linecap:round; fill:none" d="M 317.817 416.47C 318.031 416.257 318.163 415.962 318.163 415.637C 318.163 414.985 317.635 414.457 316.983 414.457C 316.658 414.457 316.363 414.589 316.149 414.803"/>
<path style="stroke:#ffff00; stroke-width:0.850394; stroke-linejoin:round; stroke-linecap:round; fill:none" d="M 317.818 416.471L 317.818 436.56"/>
<path style="stroke:#ffff00; stroke-width:0.850394; stroke-linejoin:round; stroke-linecap:round; fill:none" d="M 322.343 437.829C 321.024 437.024 319.475 436.56 317.818 436.56"/>
<path style="stroke:#ffff00; stroke-width:0.850394; stroke-linejoin:round; stroke-linecap:round; fill:none" d="M 322.343 437.829C 323.662 438.634 325.212 439.098 326.869 439.098"/>
<path style="stroke:#ffff00; stroke-width:0.850394; stroke-linejoin:round; stroke-linecap:round; fill:none" d="M 326.869 439.098L 368.585 439.098"/>
<path style="stroke:#ffff00; stroke-width:0.850394; stroke-linejoin:round; stroke-linecap:round; fill:none" d="M 368.585 439.098C 388.892 439.098 405.883 424.806 410.04 405.738"/>
<path style="stroke:#ffff00; stroke-width:0.850394; stroke-linejoin:round; stroke-linecap:round; fill:none" d="M 410.033 405.737L 423.087 405.737"/>
<path style="stroke:#ffff00; stroke-width:0.850394; stroke-linejoin:round; stroke-linecap:round; fill:none" d="M 423.087 405.737L 423.087 397.851"/>
<path style="stroke:#ffff00; stroke-width:0.850394; stroke-linejoin:round; stroke-linecap:round; fill:none" d="M 423.087 397.851L 401.926 397.851"/>
<path style="stroke:#ffff00; stroke-width:0.850394; stroke-linejoin:round; stroke-linecap:round; fill:none" d="M 401.926 395.491C 401.304 377.622 386.605 363.309 368.585 363.309C 350.171 363.309 335.224 378.256 335.224 396.671C 335.224 415.086 350.171 430.033 368.585 430.033C 386.605 430.033 401.304 415.72 401.926 397.851"/>
<path style="stroke:#ffff00; stroke-width:0.850394; stroke-linejoin:round; stroke-linecap:round; fill:none" d="M 401.926 395.491L 423.087 395.491"/>
<path style="stroke:#ffff00; stroke-width:0.850394; stroke-linejoin:round; stroke-linecap:round; fill:none" d="M 423.087 395.491L 423.087 387.605"/>
<path style="stroke:#ffff00; stroke-width:0.850394; stroke-linejoin:round; stroke-linecap:round; fill:none" d="M 423.087 387.605L 410.033 387.605"/>
<path style="stroke:#ffff00; stroke-width:0.850394; stroke-linejoin:round; stroke-linecap:round; fill:none" d="M 410.04 387.604C 405.883 368.537 388.892 354.244 368.585 354.244"/>
<path style="stroke:#ffff00; stroke-width:0.850394; stroke-linejoin:round; stroke-linecap:round; fill:none" d="M 368.585 354.244L 326.869 354.244"/>
<path style="stroke:#ffff00; stroke-width:0.850394; stroke-linejoin:round; stroke-linecap:round; fill:none" d="M 326.869 354.244C 326.869 354.244 326.869 354.244 326.869 354.244C 325.212 354.244 323.662 354.708 322.343 355.513"/>
<path style="stroke:#ffff00; stroke-width:0.850394; stroke-linejoin:round; stroke-linecap:round; fill:none" d="M 317.818 356.782C 319.475 356.782 321.024 356.318 322.343 355.513"/>
<path style="stroke:#ffff00; stroke-width:0.850394; stroke-linejoin:round; stroke-linecap:round; fill:none" d="M 317.818 356.782L 317.818 376.871"/>
<path style="stroke:#ffff00; stroke-width:0.850394; stroke-linejoin:round; stroke-linecap:round; fill:none" d="M 316.149 378.54C 316.363 378.753 316.658 378.885 316.983 378.885C 317.635 378.885 318.163 378.357 318.163 377.706C 318.163 377.38 318.031 377.085 317.817 376.872"/>
<path style="stroke:#ffff00; stroke-width:0.850394; stroke-linejoin:round; stroke-linecap:round; fill:none" d="M 316.149 378.54L 304.763 378.54"/>
<path style="stroke:#ffff00; stroke-width:0.850394; stroke-linejoin:round; stroke-linecap:round; fill:none" d="M 304.763 378.54L 304.763 414.802"/>
<path style="stroke:#ffff00; stroke-width:0.850394; stroke-linejoin:round; stroke-linecap:round; fill:none" d="M 304.763 414.802L 316.149 414.802"/>
<path style="stroke:#ffff00; stroke-width:0.850394; stroke-linejoin:round; stroke-linecap:round; fill:none" d="M 647.808 387.75C 647.594 387.964 647.462 388.259 647.462 388.584C 647.462 389.236 647.991 389.764 648.642 389.764C 648.968 389.764 649.262 389.632 649.476 389.418"/>
<path style="stroke:#ffff00; stroke-width:0.850394; stroke-linejoin:round; stroke-linecap:round; fill:none" d="M 647.808 387.75L 647.808 376.364"/>
<path style="stroke:#ffff00; stroke-width:0.850394; stroke-linejoin:round; stroke-linecap:round; fill:none" d="M 647.808 376.364L 611.545 376.364"/>
<path style="stroke:#ffff00; stroke-width:0.850394; stroke-linejoin:round; stroke-linecap:round; fill:none" d="M 611.545 376.364L 611.545 387.75"/>
<path style="stroke:#ffff00; stroke-width:0.850394; stroke-linejoin:round; stroke-linecap:round; fill:none" d="M 609.877 389.418C 610.091 389.632 610.385 389.764 610.711 389.764C 611.362 389.764 611.891 389.236 611.891 388.584C 611.891 388.259 611.759 387.964 611.545 387.75"/>
<path style="stroke:#ffff00; stroke-width:0.850394; stroke-linejoin:round; stroke-linecap:round; fill:none" d="M 609.877 389.419L 589.788 389.419"/>
<path style="stroke:#ffff00; stroke-width:0.850394; stroke-linejoin:round; stroke-linecap:round; fill:none" d="M 588.518 393.944C 589.324 392.625 589.788 391.076 589.788 389.419"/>
<path style="stroke:#ffff00; stroke-width:0.850394; stroke-linejoin:round; stroke-linecap:round; fill:none" d="M 588.518 393.944C 587.713 395.263 587.249 396.812 587.249 398.47"/>
<path style="stroke:#ffff00; stroke-width:0.850394; stroke-linejoin:round; stroke-linecap:round; fill:none" d="M 587.249 398.47L 587.249 440.186"/>
<path style="stroke:#ffff00; stroke-width:0.850394; stroke-linejoin:round; stroke-linecap:round; fill:none" d="M 587.249 440.186C 587.249 460.493 601.542 477.484 620.609 481.641"/>
<path style="stroke:#ffff00; stroke-width:0.850394; stroke-linejoin:round; stroke-linecap:round; fill:none" d="M 620.611 481.634L 620.611 494.688"/>
<path style="stroke:#ffff00; stroke-width:0.850394; stroke-linejoin:round; stroke-linecap:round; fill:none" d="M 620.611 494.688L 628.497 494.688"/>
<path style="stroke:#ffff00; stroke-width:0.850394; stroke-linejoin:round; stroke-linecap:round; fill:none" d="M 628.497 494.688L 628.497 473.527"/>
<path style="stroke:#ffff00; stroke-width:0.850394; stroke-linejoin:round; stroke-linecap:round; fill:none" d="M 630.857 473.527C 648.726 472.905 663.038 458.206 663.038 440.186C 663.038 421.772 648.091 406.825 629.677 406.825C 611.262 406.825 596.315 421.772 596.315 440.186C 596.315 458.206 610.627 472.905 628.496 473.527"/>
<path style="stroke:#ffff00; stroke-width:0.850394; stroke-linejoin:round; stroke-linecap:round; fill:none" d="M 630.856 473.527L 630.856 494.688"/>
<path style="stroke:#ffff00; stroke-width:0.850394; stroke-linejoin:round; stroke-linecap:round; fill:none" d="M 630.856 494.688L 638.742 494.688"/>
<path style="stroke:#ffff00; stroke-width:0.850394; stroke-linejoin:round; stroke-linecap:round; fill:none" d="M 638.742 494.688L 638.742 481.634"/>
<path style="stroke:#ffff00; stroke-width:0.850394; stroke-linejoin:round; stroke-linecap:round; fill:none" d="M 638.744 481.641C 657.811 477.484 672.104 460.493 672.104 440.186"/>
<path style="stroke:#ffff00; stroke-width:0.850394; stroke-linejoin:round; stroke-linecap:round; fill:none" d="M 672.104 440.186L 672.104 398.47"/>
<path style="stroke:#ffff00; stroke-width:0.850394; stroke-linejoin:round; stroke-linecap:round; fill:none" d="M 672.104 398.47C 672.104 396.812 671.64 395.263 670.835 393.944"/>
<path style="stroke:#ffff00; stroke-width:0.850394; stroke-linejoin:round; stroke-linecap:round; fill:none" d="M 669.565 389.419C 669.565 391.076 670.029 392.625 670.835 393.944"/>
<path style="stroke:#ffff00; stroke-width:0.850394; stroke-linejoin:round; stroke-linecap:round; fill:none" d="M 669.565 389.419L 649.476 389.419"/>
<path style="stroke:#000000; stroke-width:0.850394; stroke-linejoin:round; stroke-linecap:round; fill:none" d="M 829.142 796.286C 828.675 795.819 828.03 795.53 827.319 795.53C 825.895 795.53 824.74 796.686 824.74 798.109C 824.74 798.821 825.028 799.466 825.495 799.933"/>
<path style="stroke:#000000; stroke-width:0.850394; stroke-linejoin:round; stroke-linecap:round; fill:none" d="M 829.142 796.286L 840 796.286"/>
<path style="stroke:#000000; stroke-width:0.850394; stroke-linejoin:round; stroke-linecap:round; fill:none" d="M 840 796.286L 840 783.231"/>
<path style="stroke:#000000; stroke-width:0.850394; stroke-linejoin:round; stroke-linecap:round; fill:none" d="M 840 783.231L 772.914 578.71"/>
<path style="stroke:#000000; stroke-width:0.850394; stroke-linejoin:round; stroke-linecap:round; fill:none" d="M 772.914 578.71L 675.005 578.71"/>
<path style="stroke:#000000; stroke-width:0.850394; stroke-linejoin:round; stroke-linecap:round; fill:none" d="M 675.005 578.71L 607.919 783.231"/>
<path style="stroke:#000000; stroke-width:0.850394; stroke-linejoin:round; stroke-linecap:round; fill:none" d="M 607.919 783.231L 607.919 796.286"/>
<path style="stroke:#000000; stroke-width:0.850394; stroke-linejoin:round; stroke-linecap:round; fill:none" d="M 607.919 796.286L 618.777 796.286"/>
<path style="stroke:#000000; stroke-width:0.850394; stroke-linejoin:round; stroke-linecap:round; fill:none" d="M 622.424 799.933C 622.891 799.466 623.179 798.821 623.179 798.109C 623.179 796.686 622.024 795.53 620.6 795.53C 619.889 795.53 619.244 795.819 618.777 796.286"/>
<path style="stroke:#000000; stroke-width:0.850394; stroke-linejoin:round; stroke-linecap:round; fill:none" d="M 622.424 799.933L 622.424 809.34"/>
<path style="stroke:#000000; stroke-width:0.850394; stroke-linejoin:round; stroke-linecap:round; fill:none" d="M 622.424 809.34L 651.434 809.34"/>
<path style="stroke:#000000; stroke-width:0.850394; stroke-linejoin:round; stroke-linecap:round; fill:none" d="M 651.434 809.34L 651.434 799.933"/>
<path style="stroke:#000000; stroke-width:0.850394; stroke-linejoin:round; stroke-linecap:round; fill:none" d="M 655.081 796.286C 654.614 795.819 653.97 795.53 653.258 795.53C 651.834 795.53 650.679 796.686 650.679 798.109C 650.679 798.821 650.968 799.466 651.434 799.933"/>
<path style="stroke:#000000; stroke-width:0.850394; stroke-linejoin:round; stroke-linecap:round; fill:none" d="M 655.081 796.286L 714.503 796.286"/>
<path style="stroke:#000000; stroke-width:0.850394; stroke-linejoin:round; stroke-linecap:round; fill:none" d="M 714.503 796.286L 714.503 786.822"/>
<path style="stroke:#000000; stroke-width:0.850394; stroke-linejoin:round; stroke-linecap:round; fill:none" d="M 718.15 783.175C 717.683 782.708 717.038 782.419 716.327 782.419C 714.903 782.419 713.747 783.575 713.747 784.998C 713.747 785.71 714.036 786.355 714.503 786.821"/>
<path style="stroke:#000000; stroke-width:0.850394; stroke-linejoin:round; stroke-linecap:round; fill:none" d="M 718.15 783.174L 729.797 783.174"/>
<path style="stroke:#000000; stroke-width:0.850394; stroke-linejoin:round; stroke-linecap:round; fill:none" d="M 733.444 786.821C 733.911 786.355 734.2 785.71 734.2 784.998C 734.2 783.575 733.044 782.419 731.621 782.419C 730.909 782.419 730.264 782.708 729.797 783.175"/>
<path style="stroke:#000000; stroke-width:0.850394; stroke-linejoin:round; stroke-linecap:round; fill:none" d="M 733.444 786.822L 733.444 796.286"/>
<path style="stroke:#000000; stroke-width:0.850394; stroke-linejoin:round; stroke-linecap:round; fill:none" d="M 733.444 796.286L 792.838 796.286"/>
<path style="stroke:#000000; stroke-width:0.850394; stroke-linejoin:round; stroke-linecap:round; fill:none" d="M 796.484 799.933C 796.951 799.466 797.24 798.821 797.24 798.109C 797.24 796.686 796.085 795.53 794.661 795.53C 793.949 795.53 793.305 795.819 792.838 796.286"/>
<path style="stroke:#000000; stroke-width:0.850394; stroke-linejoin:round; stroke-linecap:round; fill:none" d="M 796.485 799.933L 796.485 809.34"/>
<path style="stroke:#000000; stroke-width:0.850394; stroke-linejoin:round; stroke-linecap:round; fill:none" d="M 796.485 809.34L 825.495 809.34"/>
<path style="stroke:#000000; stroke-width:0.850394; stroke-linejoin:round; stroke-linecap:round; fill:none" d="M 825.495 809.34L 825.495 799.933"/>
<path style="stroke:#000000; stroke-width:0.850394; stroke-linejoin:round; stroke-linecap:round; fill:none" d="M 823.605 775.134L 777.405 634.285L 772.914 635.003L 772.914 775.852L 775.217 778.154L 821.417 778.154L 823.605 775.134z"/>
<path style="stroke:#000000; stroke-width:0.850394; stroke-linejoin:round; stroke-linecap:round; fill:none" d="M 675.005 775.852L 672.702 778.154L 626.502 778.154L 624.314 775.134L 670.514 634.285L 675.005 635.003L 675.005 775.852z"/>
<path style="stroke:#00ffff; stroke-width:0.850394; stroke-linejoin:round; stroke-linecap:round; fill:none" d="M 691.387 595.028C 691.387 594.392 690.871 593.877 690.235 593.877C 689.6 593.877 689.084 594.392 689.084 595.028C 689.084 595.663 689.6 596.179 690.235 596.179C 690.871 596.179 691.387 595.663 691.387 595.028z"/>
<path style="stroke:#00ffff; stroke-width:0.850394; stroke-linejoin:round; stroke-linecap:round; fill:none" d="M 691.387 727.387C 691.387 726.751 690.871 726.235 690.235 726.235C 689.6 726.235 689.084 726.751 689.084 727.387C 689.084 728.022 689.6 728.538 690.235 728.538C 690.871 728.538 691.387 728.022 691.387 727.387z"/>
<path style="stroke:#000000; stroke-width:0.850394; stroke-linejoin:round; stroke-linecap:round; fill:none" d="M 764.239 702.381L 764.239 679.867L 760.963 676.591L 754.405 676.591L 751.128 679.867L 751.128 702.381L 754.405 705.657L 760.963 705.657L 764.239 702.381z"/>
<path style="stroke:#000000; stroke-width:0.850394; stroke-linejoin:round; stroke-linecap:round; fill:none" d="M 764.239 629.856L 764.239 607.342L 760.963 604.065L 754.405 604.065L 751.128 607.342L 751.128 629.856L 754.405 633.132L 760.963 633.132L 764.239 629.856z"/>
<path style="stroke:#000000; stroke-width:0.850394; stroke-linejoin:round; stroke-linecap:round; fill:none" d="M 754.405 778.183L 760.963 778.183L 764.239 774.906L 764.239 752.392L 760.963 749.116L 754.405 749.116L 751.128 752.392L 751.128 774.906L 754.405 778.183z"/>
<path style="stroke:#00ffff; stroke-width:0.850394; stroke-linejoin:round; stroke-linecap:round; fill:none" d="M 758.835 654.861C 758.835 654.226 758.319 653.71 757.684 653.71C 757.048 653.71 756.532 654.226 756.532 654.861C 756.532 655.497 757.048 656.013 757.684 656.013C 758.319 656.013 758.835 655.497 758.835 654.861z"/>
<path style="stroke:#00ffff; stroke-width:0.850394; stroke-linejoin:round; stroke-linecap:round; fill:none" d="M 758.835 595.028C 758.835 594.392 758.319 593.877 757.684 593.877C 757.048 593.877 756.532 594.392 756.532 595.028C 756.532 595.663 757.048 596.179 757.684 596.179C 758.319 596.179 758.835 595.663 758.835 595.028z"/>
<path style="stroke:#00ffff; stroke-width:0.850394; stroke-linejoin:round; stroke-linecap:round; fill:none" d="M 758.835 727.387C 758.835 726.751 758.319 726.235 757.684 726.235C 757.048 726.235 756.532 726.751 756.532 727.387C 756.532 728.022 757.048 728.538 757.684 728.538C 758.319 728.538 758.835 728.022 758.835 727.387z"/>
<path style="stroke:#000000; stroke-width:0.850394; stroke-linejoin:round; stroke-linecap:round; fill:none" d="M 683.68 679.867L 683.68 702.381L 686.956 705.657L 693.514 705.657L 696.791 702.381L 696.791 679.867L 693.514 676.591L 686.956 676.591L 683.68 679.867z"/>
<path style="stroke:#000000; stroke-width:0.850394; stroke-linejoin:round; stroke-linecap:round; fill:none" d="M 693.514 604.065L 696.791 607.342L 696.791 629.856L 693.514 633.132L 686.956 633.132L 683.68 629.856L 683.68 607.342L 686.956 604.065L 693.514 604.065z"/>
<path style="stroke:#000000; stroke-width:0.850394; stroke-linejoin:round; stroke-linecap:round; fill:none" d="M 683.68 752.392L 683.68 774.906L 686.956 778.183L 693.514 778.183L 696.791 774.906L 696.791 752.392L 693.514 749.116L 686.956 749.116L 683.68 752.392z"/>
<path style="stroke:#00ffff; stroke-width:0.850394; stroke-linejoin:round; stroke-linecap:round; fill:none" d="M 691.387 654.861C 691.387 654.226 690.871 653.71 690.235 653.71C 689.6 653.71 689.084 654.226 689.084 654.861C 689.084 655.497 689.6 656.013 690.235 656.013C 690.871 656.013 691.387 655.497 691.387 654.861z"/>
<path style="stroke:#000000; stroke-width:0.850394; stroke-linejoin:round; stroke-linecap:round; fill:none" d="M 219.888 604.093C 220.354 604.56 220.999 604.849 221.711 604.849C 223.135 604.849 224.29 603.693 224.29 602.27C 224.29 601.558 224.001 600.913 223.534 600.447"/>
<path style="stroke:#000000; stroke-width:0.850394; stroke-linejoin:round; stroke-linecap:round; fill:none" d="M 219.887 604.094L 210.48 604.094"/>
<path style="stroke:#000000; stroke-width:0.850394; stroke-linejoin:round; stroke-linecap:round; fill:none" d="M 210.48 604.094L 210.48 633.104"/>
<path style="stroke:#000000; stroke-width:0.850394; stroke-linejoin:round; stroke-linecap:round; fill:none" d="M 210.48 633.104L 219.887 633.104"/>
<path style="stroke:#000000; stroke-width:0.850394; stroke-linejoin:round; stroke-linecap:round; fill:none" d="M 223.534 636.751C 224.001 636.284 224.29 635.639 224.29 634.927C 224.29 633.504 223.135 632.348 221.711 632.348C 220.999 632.348 220.354 632.637 219.888 633.104"/>
<path style="stroke:#000000; stroke-width:0.850394; stroke-linejoin:round; stroke-linecap:round; fill:none" d="M 223.535 636.751L 223.535 672.972"/>
<path style="stroke:#000000; stroke-width:0.850394; stroke-linejoin:round; stroke-linecap:round; fill:none" d="M 219.888 676.619C 220.354 677.085 220.999 677.374 221.711 677.374C 223.135 677.374 224.29 676.219 224.29 674.795C 224.29 674.083 224.001 673.439 223.534 672.972"/>
<path style="stroke:#000000; stroke-width:0.850394; stroke-linejoin:round; stroke-linecap:round; fill:none" d="M 219.887 676.619L 210.48 676.619"/>
<path style="stroke:#000000; stroke-width:0.850394; stroke-linejoin:round; stroke-linecap:round; fill:none" d="M 210.48 676.619L 210.48 705.629"/>
<path style="stroke:#000000; stroke-width:0.850394; stroke-linejoin:round; stroke-linecap:round; fill:none" d="M 210.48 705.629L 219.887 705.629"/>
<path style="stroke:#000000; stroke-width:0.850394; stroke-linejoin:round; stroke-linecap:round; fill:none" d="M 223.534 709.276C 224.001 708.809 224.29 708.164 224.29 707.453C 224.29 706.029 223.135 704.874 221.711 704.874C 220.999 704.874 220.354 705.162 219.888 705.629"/>
<path style="stroke:#000000; stroke-width:0.850394; stroke-linejoin:round; stroke-linecap:round; fill:none" d="M 223.535 709.276L 223.535 745.497"/>
<path style="stroke:#000000; stroke-width:0.850394; stroke-linejoin:round; stroke-linecap:round; fill:none" d="M 219.888 749.144C 220.354 749.611 220.999 749.9 221.711 749.9C 223.135 749.9 224.29 748.744 224.29 747.321C 224.29 746.609 224.001 745.964 223.534 745.497"/>
<path style="stroke:#000000; stroke-width:0.850394; stroke-linejoin:round; stroke-linecap:round; fill:none" d="M 219.887 749.144L 210.48 749.144"/>
<path style="stroke:#000000; stroke-width:0.850394; stroke-linejoin:round; stroke-linecap:round; fill:none" d="M 210.48 749.144L 210.48 778.154"/>
<path style="stroke:#000000; stroke-width:0.850394; stroke-linejoin:round; stroke-linecap:round; fill:none" d="M 210.48 778.154L 219.887 778.154"/>
<path style="stroke:#000000; stroke-width:0.850394; stroke-linejoin:round; stroke-linecap:round; fill:none" d="M 223.534 781.801C 224.001 781.334 224.29 780.69 224.29 779.978C 224.29 778.554 223.135 777.399 221.711 777.399C 220.999 777.399 220.354 777.688 219.888 778.155"/>
<path style="stroke:#000000; stroke-width:0.850394; stroke-linejoin:round; stroke-linecap:round; fill:none" d="M 223.535 781.802L 223.535 796.286"/>
<path style="stroke:#000000; stroke-width:0.850394; stroke-linejoin:round; stroke-linecap:round; fill:none" d="M 223.535 796.286L 238.019 796.286"/>
<path style="stroke:#000000; stroke-width:0.850394; stroke-linejoin:round; stroke-linecap:round; fill:none" d="M 241.666 799.933C 242.132 799.466 242.421 798.821 242.421 798.109C 242.421 796.686 241.266 795.53 239.842 795.53C 239.131 795.53 238.486 795.819 238.019 796.286"/>
<path style="stroke:#000000; stroke-width:0.850394; stroke-linejoin:round; stroke-linecap:round; fill:none" d="M 241.666 799.933L 241.666 809.34"/>
<path style="stroke:#000000; stroke-width:0.850394; stroke-linejoin:round; stroke-linecap:round; fill:none" d="M 241.666 809.34L 277.929 809.34"/>
<path style="stroke:#000000; stroke-width:0.850394; stroke-linejoin:round; stroke-linecap:round; fill:none" d="M 277.929 809.34L 277.929 799.933"/>
<path style="stroke:#000000; stroke-width:0.850394; stroke-linejoin:round; stroke-linecap:round; fill:none" d="M 281.576 796.286C 281.109 795.819 280.464 795.53 279.752 795.53C 278.329 795.53 277.173 796.686 277.173 798.109C 277.173 798.821 277.462 799.466 277.929 799.933"/>
<path style="stroke:#000000; stroke-width:0.850394; stroke-linejoin:round; stroke-linecap:round; fill:none" d="M 281.576 796.286L 296.06 796.286"/>
<path style="stroke:#000000; stroke-width:0.850394; stroke-linejoin:round; stroke-linecap:round; fill:none" d="M 296.06 796.286L 296.06 774.528"/>
<path style="stroke:#000000; stroke-width:0.850394; stroke-linejoin:round; stroke-linecap:round; fill:none" d="M 296.06 774.528L 259.797 585.962"/>
<path style="stroke:#000000; stroke-width:0.850394; stroke-linejoin:round; stroke-linecap:round; fill:none" d="M 259.797 585.962L 223.535 585.962"/>
<path style="stroke:#000000; stroke-width:0.850394; stroke-linejoin:round; stroke-linecap:round; fill:none" d="M 223.535 585.962L 223.535 600.446"/>
<path style="stroke:#000000; stroke-width:0.850394; stroke-linejoin:round; stroke-linecap:round; fill:none" d="M 259.797 577.984L 296.06 389.419"/>
<path style="stroke:#000000; stroke-width:0.850394; stroke-linejoin:round; stroke-linecap:round; fill:none" d="M 223.534 418.449C 224.001 417.983 224.29 417.338 224.29 416.626C 224.29 415.202 223.135 414.047 221.711 414.047C 220.999 414.047 220.354 414.336 219.888 414.803"/>
<path style="stroke:#000000; stroke-width:0.850394; stroke-linejoin:round; stroke-linecap:round; fill:none" d="M 223.535 418.45L 223.535 454.67"/>
<path style="stroke:#000000; stroke-width:0.850394; stroke-linejoin:round; stroke-linecap:round; fill:none" d="M 219.888 458.317C 220.354 458.784 220.999 459.073 221.711 459.073C 223.135 459.073 224.29 457.917 224.29 456.494C 224.29 455.782 224.001 455.137 223.534 454.671"/>
<path style="stroke:#000000; stroke-width:0.850394; stroke-linejoin:round; stroke-linecap:round; fill:none" d="M 219.887 458.318L 210.48 458.318"/>
<path style="stroke:#000000; stroke-width:0.850394; stroke-linejoin:round; stroke-linecap:round; fill:none" d="M 210.48 458.318L 210.48 487.328"/>
<path style="stroke:#000000; stroke-width:0.850394; stroke-linejoin:round; stroke-linecap:round; fill:none" d="M 210.48 487.328L 219.887 487.328"/>
<path style="stroke:#000000; stroke-width:0.850394; stroke-linejoin:round; stroke-linecap:round; fill:none" d="M 223.534 490.975C 224.001 490.508 224.29 489.863 224.29 489.151C 224.29 487.728 223.135 486.572 221.711 486.572C 220.999 486.572 220.354 486.861 219.888 487.328"/>
<path style="stroke:#000000; stroke-width:0.850394; stroke-linejoin:round; stroke-linecap:round; fill:none" d="M 223.535 490.975L 223.535 527.196"/>
<path style="stroke:#000000; stroke-width:0.850394; stroke-linejoin:round; stroke-linecap:round; fill:none" d="M 219.888 530.843C 220.354 531.309 220.999 531.598 221.711 531.598C 223.135 531.598 224.29 530.443 224.29 529.019C 224.29 528.307 224.001 527.663 223.534 527.196"/>
<path style="stroke:#000000; stroke-width:0.850394; stroke-linejoin:round; stroke-linecap:round; fill:none" d="M 219.887 530.843L 210.48 530.843"/>
<path style="stroke:#000000; stroke-width:0.850394; stroke-linejoin:round; stroke-linecap:round; fill:none" d="M 210.48 530.843L 210.48 559.853"/>
<path style="stroke:#000000; stroke-width:0.850394; stroke-linejoin:round; stroke-linecap:round; fill:none" d="M 210.48 559.853L 219.887 559.853"/>
<path style="stroke:#000000; stroke-width:0.850394; stroke-linejoin:round; stroke-linecap:round; fill:none" d="M 223.534 563.5C 224.001 563.033 224.29 562.388 224.29 561.677C 224.29 560.253 223.135 559.098 221.711 559.098C 220.999 559.098 220.354 559.387 219.888 559.853"/>
<path style="stroke:#000000; stroke-width:0.850394; stroke-linejoin:round; stroke-linecap:round; fill:none" d="M 223.535 563.5L 223.535 577.984"/>
<path style="stroke:#000000; stroke-width:0.850394; stroke-linejoin:round; stroke-linecap:round; fill:none" d="M 223.535 577.984L 259.797 577.984"/>
<path style="stroke:#000000; stroke-width:0.850394; stroke-linejoin:round; stroke-linecap:round; fill:none" d="M 296.06 389.419L 296.06 367.661"/>
<path style="stroke:#000000; stroke-width:0.850394; stroke-linejoin:round; stroke-linecap:round; fill:none" d="M 296.06 367.661L 281.576 367.661"/>
<path style="stroke:#000000; stroke-width:0.850394; stroke-linejoin:round; stroke-linecap:round; fill:none" d="M 277.929 364.014C 277.462 364.481 277.173 365.126 277.173 365.837C 277.173 367.261 278.329 368.416 279.752 368.416C 280.464 368.416 281.109 368.127 281.576 367.661"/>
<path style="stroke:#000000; stroke-width:0.850394; stroke-linejoin:round; stroke-linecap:round; fill:none" d="M 277.929 364.014L 277.929 354.606"/>
<path style="stroke:#000000; stroke-width:0.850394; stroke-linejoin:round; stroke-linecap:round; fill:none" d="M 277.929 354.606L 241.666 354.606"/>
<path style="stroke:#000000; stroke-width:0.850394; stroke-linejoin:round; stroke-linecap:round; fill:none" d="M 241.666 354.606L 241.666 364.014"/>
<path style="stroke:#000000; stroke-width:0.850394; stroke-linejoin:round; stroke-linecap:round; fill:none" d="M 238.019 367.661C 238.486 368.127 239.131 368.416 239.842 368.416C 241.266 368.416 242.421 367.261 242.421 365.837C 242.421 365.126 242.132 364.481 241.666 364.014"/>
<path style="stroke:#000000; stroke-width:0.850394; stroke-linejoin:round; stroke-linecap:round; fill:none" d="M 238.019 367.661L 223.535 367.661"/>
<path style="stroke:#000000; stroke-width:0.850394; stroke-linejoin:round; stroke-linecap:round; fill:none" d="M 223.535 367.661L 223.535 382.145"/>
<path style="stroke:#000000; stroke-width:0.850394; stroke-linejoin:round; stroke-linecap:round; fill:none" d="M 219.888 385.792C 220.354 386.259 220.999 386.548 221.711 386.548C 223.135 386.548 224.29 385.392 224.29 383.969C 224.29 383.257 224.001 382.612 223.534 382.145"/>
<path style="stroke:#000000; stroke-width:0.850394; stroke-linejoin:round; stroke-linecap:round; fill:none" d="M 219.887 385.792L 210.48 385.792"/>
<path style="stroke:#000000; stroke-width:0.850394; stroke-linejoin:round; stroke-linecap:round; fill:none" d="M 210.48 385.792L 210.48 414.802"/>
<path style="stroke:#000000; stroke-width:0.850394; stroke-linejoin:round; stroke-linecap:round; fill:none" d="M 210.48 414.802L 219.887 414.802"/>
<path style="stroke:#ff00ff; stroke-width:0.850394; stroke-linejoin:round; stroke-linecap:round; fill:none" d="M 466.495 441.202C 466.495 439.2 464.87 437.575 462.868 437.575C 460.867 437.575 459.242 439.2 459.242 441.202C 459.242 443.203 460.867 444.828 462.868 444.828C 464.87 444.828 466.495 443.203 466.495 441.202z"/>
<path style="stroke:#ff00ff; stroke-width:0.850394; stroke-linejoin:round; stroke-linecap:round; fill:none" d="M 406.79 548.378C 406.79 546.977 405.653 545.839 404.252 545.839C 402.85 545.839 401.713 546.977 401.713 548.378C 401.713 549.779 402.85 550.916 404.252 550.916C 405.653 550.916 406.79 549.779 406.79 548.378z"/>
<path style="stroke:#ff00ff; stroke-width:0.850394; stroke-linejoin:round; stroke-linecap:round; fill:none" d="M 524.023 548.378C 524.023 546.977 522.886 545.839 521.485 545.839C 520.084 545.839 518.947 546.977 518.947 548.378C 518.947 549.779 520.084 550.916 521.485 550.916C 522.886 550.916 524.023 549.779 524.023 548.378z"/>
<path style="stroke:#ff00ff; stroke-width:0.850394; stroke-linejoin:round; stroke-linecap:round; fill:none" d="M 406.79 665.611C 406.79 664.21 405.653 663.073 404.252 663.073C 402.85 663.073 401.713 664.21 401.713 665.611C 401.713 667.012 402.85 668.15 404.252 668.15C 405.653 668.15 406.79 667.012 406.79 665.611z"/>
<path style="stroke:#ff00ff; stroke-width:0.850394; stroke-linejoin:round; stroke-linecap:round; fill:none" d="M 524.023 665.611C 524.023 664.21 522.886 663.073 521.485 663.073C 520.084 663.073 518.947 664.21 518.947 665.611C 518.947 667.012 520.084 668.15 521.485 668.15C 522.886 668.15 524.023 667.012 524.023 665.611z"/>
<path style="stroke:#00ff00; stroke-width:0.850394; stroke-linejoin:round; stroke-linecap:round; fill:none" d="M 249.42 704.968L 237.055 700.329L 237.055 699.118L 237.054 695.367L 254.786 695.367L 254.788 699.118L 243.319 699.118L 254.788 703.436L 254.788 706.535L 254.785 706.535L 254.785 706.555L 243.315 710.873L 254.785 710.873L 254.786 714.624L 237.054 714.624L 237.052 710.873L 237.052 709.663L 249.42 705.022L 249.42 704.968z"/>
<path style="stroke:#00ff00; stroke-width:0.850394; stroke-linejoin:round; stroke-linecap:round; fill:none" d="M 245.695 682.323C 241.714 682.047 241.714 682.047 241.714 688.331"/>
<path style="stroke:#00ff00; stroke-width:0.850394; stroke-linejoin:round; stroke-linecap:round; fill:none" d="M 241.714 688.331C 241.714 693.931 241.714 693.931 245.64 693.765"/>
<path style="stroke:#00ff00; stroke-width:0.850394; stroke-linejoin:round; stroke-linecap:round; fill:none" d="M 245.64 693.765L 245.922 690.215"/>
<path style="stroke:#00ff00; stroke-width:0.850394; stroke-linejoin:round; stroke-linecap:round; fill:none" d="M 245.922 690.215C 244.983 690.122 244.711 689.199 244.619 688.744"/>
<path style="stroke:#00ff00; stroke-width:0.850394; stroke-linejoin:round; stroke-linecap:round; fill:none" d="M 244.619 688.744C 244.595 688.605 244.578 688.45 244.58 688.271"/>
<path style="stroke:#00ff00; stroke-width:0.850394; stroke-linejoin:round; stroke-linecap:round; fill:none" d="M 244.58 688.271C 244.592 686.884 245.167 686.262 246.06 686.163"/>
<path style="stroke:#00ff00; stroke-width:0.850394; stroke-linejoin:round; stroke-linecap:round; fill:none" d="M 246.06 686.163C 246.382 686.124 246.758 686.114 247.187 686.114"/>
<path style="stroke:#00ff00; stroke-width:0.850394; stroke-linejoin:round; stroke-linecap:round; fill:none" d="M 247.187 686.114C 246.367 694.205 246.367 694.205 251.116 694.205"/>
<path style="stroke:#00ff00; stroke-width:0.850394; stroke-linejoin:round; stroke-linecap:round; fill:none" d="M 251.116 694.205C 255.043 694.468 255.043 694.468 255.043 689.653"/>
<path style="stroke:#00ff00; stroke-width:0.850394; stroke-linejoin:round; stroke-linecap:round; fill:none" d="M 255.043 689.653C 255.057 687.214 255.057 687.214 253.265 685.884"/>
<path style="stroke:#00ff00; stroke-width:0.850394; stroke-linejoin:round; stroke-linecap:round; fill:none" d="M 253.265 685.884C 254.263 685.634 254.263 685.634 254.786 685.255"/>
<path style="stroke:#00ff00; stroke-width:0.850394; stroke-linejoin:round; stroke-linecap:round; fill:none" d="M 254.786 685.255L 254.786 681.51"/>
<path style="stroke:#00ff00; stroke-width:0.850394; stroke-linejoin:round; stroke-linecap:round; fill:none" d="M 254.786 681.51C 253.881 682.246 253.881 682.246 250.924 682.322"/>
<path style="stroke:#00ff00; stroke-width:0.850394; stroke-linejoin:round; stroke-linecap:round; fill:none" d="M 250.924 682.322L 245.695 682.323"/>
<path style="stroke:#00ff00; stroke-width:0.850394; stroke-linejoin:round; stroke-linecap:round; fill:none" d="M 251.328 686.114C 252.282 686.783 252.745 690.193 250.952 690.193"/>
<path style="stroke:#00ff00; stroke-width:0.850394; stroke-linejoin:round; stroke-linecap:round; fill:none" d="M 250.952 690.193C 249.159 690.193 249.159 690.193 249.323 687.862"/>
<path style="stroke:#00ff00; stroke-width:0.850394; stroke-linejoin:round; stroke-linecap:round; fill:none" d="M 249.323 687.862L 249.323 686.114"/>
<path style="stroke:#00ff00; stroke-width:0.850394; stroke-linejoin:round; stroke-linecap:round; fill:none" d="M 249.323 686.114L 251.328 686.114"/>
<path style="stroke:#00ff00; stroke-width:0.850394; stroke-linejoin:round; stroke-linecap:round; fill:none" d="M 247.197 672.444L 247.188 672.434"/>
<path style="stroke:#00ff00; stroke-width:0.850394; stroke-linejoin:round; stroke-linecap:round; fill:none" d="M 247.188 672.434C 247.185 672.46 247.182 672.483 247.178 672.508"/>
<path style="stroke:#00ff00; stroke-width:0.850394; stroke-linejoin:round; stroke-linecap:round; fill:none" d="M 247.178 672.508C 247.043 672.976 246.953 673.394 246.897 673.695"/>
<path style="stroke:#00ff00; stroke-width:0.850394; stroke-linejoin:round; stroke-linecap:round; fill:none" d="M 246.897 673.695L 246.897 673.695"/>
<path style="stroke:#00ff00; stroke-width:0.850394; stroke-linejoin:round; stroke-linecap:round; fill:none" d="M 246.897 673.695C 246.897 673.696 246.897 673.698 246.896 673.699"/>
<path style="stroke:#00ff00; stroke-width:0.850394; stroke-linejoin:round; stroke-linecap:round; fill:none" d="M 246.896 673.699C 246.842 674 246.842 674 246.82 674.186"/>
<path style="stroke:#00ff00; stroke-width:0.850394; stroke-linejoin:round; stroke-linecap:round; fill:none" d="M 246.82 674.186L 246.822 674.187"/>
<path style="stroke:#00ff00; stroke-width:0.850394; stroke-linejoin:round; stroke-linecap:round; fill:none" d="M 246.822 674.187C 246.364 676.806 246.364 676.806 245.339 676.599"/>
<path style="stroke:#00ff00; stroke-width:0.850394; stroke-linejoin:round; stroke-linecap:round; fill:none" d="M 245.339 676.599C 244.184 676.802 244.184 676.802 244.187 674.738"/>
<path style="stroke:#00ff00; stroke-width:0.850394; stroke-linejoin:round; stroke-linecap:round; fill:none" d="M 244.187 674.738C 244.19 672.61 244.19 672.61 245.895 672.48"/>
<path style="stroke:#00ff00; stroke-width:0.850394; stroke-linejoin:round; stroke-linecap:round; fill:none" d="M 245.895 672.48L 245.609 668.571"/>
<path style="stroke:#00ff00; stroke-width:0.850394; stroke-linejoin:round; stroke-linecap:round; fill:none" d="M 245.609 668.571C 241.714 668.573 241.714 668.573 241.714 674.674"/>
<path style="stroke:#00ff00; stroke-width:0.850394; stroke-linejoin:round; stroke-linecap:round; fill:none" d="M 241.714 674.674C 241.714 680.877 241.714 680.877 245.555 680.906"/>
<path style="stroke:#00ff00; stroke-width:0.850394; stroke-linejoin:round; stroke-linecap:round; fill:none" d="M 245.555 680.906C 248.475 680.906 249.374 677.004 249.601 675.626"/>
<path style="stroke:#00ff00; stroke-width:0.850394; stroke-linejoin:round; stroke-linecap:round; fill:none" d="M 249.601 675.626C 249.601 675.623 249.602 675.621 249.602 675.619"/>
<path style="stroke:#00ff00; stroke-width:0.850394; stroke-linejoin:round; stroke-linecap:round; fill:none" d="M 249.602 675.619C 250.126 672.719 250.126 672.719 251.126 672.926"/>
<path style="stroke:#00ff00; stroke-width:0.850394; stroke-linejoin:round; stroke-linecap:round; fill:none" d="M 251.126 672.926C 252.371 672.78 252.371 672.78 252.371 674.906"/>
<path style="stroke:#00ff00; stroke-width:0.850394; stroke-linejoin:round; stroke-linecap:round; fill:none" d="M 252.371 674.906C 252.371 677.03 252.371 677.03 250.755 677.232"/>
<path style="stroke:#00ff00; stroke-width:0.850394; stroke-linejoin:round; stroke-linecap:round; fill:none" d="M 250.755 677.232L 250.95 681.257"/>
<path style="stroke:#00ff00; stroke-width:0.850394; stroke-linejoin:round; stroke-linecap:round; fill:none" d="M 250.95 681.257C 255.102 681.262 255.102 681.262 255.102 674.978"/>
<path style="stroke:#00ff00; stroke-width:0.850394; stroke-linejoin:round; stroke-linecap:round; fill:none" d="M 255.102 674.978C 255.102 668.59 255.102 668.59 251.004 668.553"/>
<path style="stroke:#00ff00; stroke-width:0.850394; stroke-linejoin:round; stroke-linecap:round; fill:none" d="M 251.004 668.553C 248.77 668.553 247.69 670.79 247.197 672.444"/>
<path style="stroke:#00ff00; stroke-width:0.850394; stroke-linejoin:round; stroke-linecap:round; fill:none" d="M 237.051 663.356L 237.051 667.326L 254.784 667.326L 254.784 663.356L 237.051 663.356z"/>
<path style="stroke:#00ff00; stroke-width:0.850394; stroke-linejoin:round; stroke-linecap:round; fill:none" d="M 241.714 655.494C 241.714 660.029 244.754 662.079 248.378 662.079"/>
<path style="stroke:#00ff00; stroke-width:0.850394; stroke-linejoin:round; stroke-linecap:round; fill:none" d="M 248.378 662.079C 252.002 662.079 255.042 660.03 255.042 655.494"/>
<path style="stroke:#00ff00; stroke-width:0.850394; stroke-linejoin:round; stroke-linecap:round; fill:none" d="M 255.042 655.494C 255.042 650.959 252.036 648.888 248.378 648.888"/>
<path style="stroke:#00ff00; stroke-width:0.850394; stroke-linejoin:round; stroke-linecap:round; fill:none" d="M 248.378 648.888C 244.72 648.888 241.714 650.959 241.714 655.494"/>
<path style="stroke:#00ff00; stroke-width:0.850394; stroke-linejoin:round; stroke-linecap:round; fill:none" d="M 252.146 655.486C 252.158 655.937 251.979 657.786 248.264 657.786"/>
<path style="stroke:#00ff00; stroke-width:0.850394; stroke-linejoin:round; stroke-linecap:round; fill:none" d="M 248.264 657.786C 244.548 657.786 244.369 655.937 244.381 655.486"/>
<path style="stroke:#00ff00; stroke-width:0.850394; stroke-linejoin:round; stroke-linecap:round; fill:none" d="M 244.381 655.486C 244.369 655.034 244.548 653.185 248.264 653.185"/>
<path style="stroke:#00ff00; stroke-width:0.850394; stroke-linejoin:round; stroke-linecap:round; fill:none" d="M 248.264 653.185C 251.979 653.185 252.158 655.034 252.146 655.486"/>
<path style="stroke:#00ff00; stroke-width:0.850394; stroke-linejoin:round; stroke-linecap:round; fill:none" d="M 250.213 635.839L 241.983 633.88L 241.983 629.778L 254.774 632.864L 254.774 637.785L 247.28 639.339L 247.28 639.342L 254.774 640.896L 254.774 645.817L 241.983 648.903L 241.983 644.749L 250.213 642.876L 241.983 640.917L 241.983 637.712L 250.213 635.839z"/>
<path style="stroke:#00ff00; stroke-width:0.850394; stroke-linejoin:round; stroke-linecap:round; fill:none" d="M 229.055 736.936C 229.055 746.196 236.561 753.702 245.821 753.702"/>
<path style="stroke:#00ff00; stroke-width:0.850394; stroke-linejoin:round; stroke-linecap:round; fill:none" d="M 245.821 753.702C 255.081 753.702 262.587 746.196 262.587 736.936"/>
<path style="stroke:#00ff00; stroke-width:0.850394; stroke-linejoin:round; stroke-linecap:round; fill:none" d="M 262.587 736.936C 262.587 727.676 255.081 720.17 245.821 720.17"/>
<path style="stroke:#00ff00; stroke-width:0.850394; stroke-linejoin:round; stroke-linecap:round; fill:none" d="M 245.821 720.17C 236.561 720.17 229.055 727.676 229.055 736.936"/>
<path style="stroke:#00ff00; stroke-width:0.850394; stroke-linejoin:round; stroke-linecap:round; fill:none" d="M 252.852 728.149C 252.998 728.265 253.095 728.431 253.125 728.616"/>
<path style="stroke:#00ff00; stroke-width:0.850394; stroke-linejoin:round; stroke-linecap:round; fill:none" d="M 253.125 728.616C 253.474 730.774 253.025 732.301 251.791 733.156"/>
<path style="stroke:#00ff00; stroke-width:0.850394; stroke-linejoin:round; stroke-linecap:round; fill:none" d="M 251.791 733.156C 250.077 734.344 247.11 733.862 244.272 732.92"/>
<path style="stroke:#00ff00; stroke-width:0.850394; stroke-linejoin:round; stroke-linecap:round; fill:none" d="M 244.272 732.92L 253.845 739.659"/>
<path style="stroke:#00ff00; stroke-width:0.850394; stroke-linejoin:round; stroke-linecap:round; fill:none" d="M 253.845 739.659C 254.05 739.803 254.163 740.034 254.163 740.271"/>
<path style="stroke:#00ff00; stroke-width:0.850394; stroke-linejoin:round; stroke-linecap:round; fill:none" d="M 254.163 740.271C 254.163 740.375 254.142 740.479 254.097 740.579"/>
<path style="stroke:#00ff00; stroke-width:0.850394; stroke-linejoin:round; stroke-linecap:round; fill:none" d="M 254.097 740.579C 253.949 740.906 253.59 741.082 253.241 740.999"/>
<path style="stroke:#00ff00; stroke-width:0.850394; stroke-linejoin:round; stroke-linecap:round; fill:none" d="M 253.241 740.999L 241.51 738.206"/>
<path style="stroke:#00ff00; stroke-width:0.850394; stroke-linejoin:round; stroke-linecap:round; fill:none" d="M 241.51 738.206L 251.456 744.894"/>
<path style="stroke:#00ff00; stroke-width:0.850394; stroke-linejoin:round; stroke-linecap:round; fill:none" d="M 251.456 744.894C 254.059 743.071 255.602 740.13 255.602 736.936"/>
<path style="stroke:#00ff00; stroke-width:0.850394; stroke-linejoin:round; stroke-linecap:round; fill:none" d="M 255.602 736.936C 255.602 734.926 254.994 732.998 253.843 731.359"/>
<path style="stroke:#00ff00; stroke-width:0.850394; stroke-linejoin:round; stroke-linecap:round; fill:none" d="M 253.843 731.359C 253.606 731.021 253.687 730.554 254.026 730.317"/>
<path style="stroke:#00ff00; stroke-width:0.850394; stroke-linejoin:round; stroke-linecap:round; fill:none" d="M 254.026 730.317C 254.364 730.079 254.831 730.161 255.068 730.499"/>
<path style="stroke:#00ff00; stroke-width:0.850394; stroke-linejoin:round; stroke-linecap:round; fill:none" d="M 255.068 730.499C 256.397 732.391 257.099 734.617 257.099 736.936"/>
<path style="stroke:#00ff00; stroke-width:0.850394; stroke-linejoin:round; stroke-linecap:round; fill:none" d="M 257.099 736.936C 257.099 740.43 255.497 743.661 252.772 745.779"/>
<path style="stroke:#00ff00; stroke-width:0.850394; stroke-linejoin:round; stroke-linecap:round; fill:none" d="M 252.772 745.779L 252.947 745.897"/>
<path style="stroke:#00ff00; stroke-width:0.850394; stroke-linejoin:round; stroke-linecap:round; fill:none" d="M 252.947 745.897C 253.29 746.128 253.381 746.593 253.151 746.935"/>
<path style="stroke:#00ff00; stroke-width:0.850394; stroke-linejoin:round; stroke-linecap:round; fill:none" d="M 253.151 746.935C 252.92 747.279 252.455 747.37 252.112 747.139"/>
<path style="stroke:#00ff00; stroke-width:0.850394; stroke-linejoin:round; stroke-linecap:round; fill:none" d="M 252.112 747.139L 237.245 737.141"/>
<path style="stroke:#00ff00; stroke-width:0.850394; stroke-linejoin:round; stroke-linecap:round; fill:none" d="M 237.245 737.141C 236.945 736.939 236.833 736.552 236.977 736.22"/>
<path style="stroke:#00ff00; stroke-width:0.850394; stroke-linejoin:round; stroke-linecap:round; fill:none" d="M 236.977 736.22C 237.123 735.888 237.484 735.708 237.836 735.792"/>
<path style="stroke:#00ff00; stroke-width:0.850394; stroke-linejoin:round; stroke-linecap:round; fill:none" d="M 237.836 735.792L 249.799 738.641"/>
<path style="stroke:#00ff00; stroke-width:0.850394; stroke-linejoin:round; stroke-linecap:round; fill:none" d="M 249.799 738.641L 238.468 730.664"/>
<path style="stroke:#00ff00; stroke-width:0.850394; stroke-linejoin:round; stroke-linecap:round; fill:none" d="M 238.468 730.664C 236.983 732.417 236.17 734.619 236.17 736.936"/>
<path style="stroke:#00ff00; stroke-width:0.850394; stroke-linejoin:round; stroke-linecap:round; fill:none" d="M 236.17 736.936C 236.17 742.293 240.529 746.652 245.886 746.652"/>
<path style="stroke:#00ff00; stroke-width:0.850394; stroke-linejoin:round; stroke-linecap:round; fill:none" d="M 245.886 746.652C 246.946 746.652 247.988 746.483 248.984 746.148"/>
<path style="stroke:#00ff00; stroke-width:0.850394; stroke-linejoin:round; stroke-linecap:round; fill:none" d="M 248.984 746.148C 249.375 746.016 249.8 746.227 249.931 746.619"/>
<path style="stroke:#00ff00; stroke-width:0.850394; stroke-linejoin:round; stroke-linecap:round; fill:none" d="M 249.931 746.619C 249.958 746.698 249.97 746.778 249.97 746.857"/>
<path style="stroke:#00ff00; stroke-width:0.850394; stroke-linejoin:round; stroke-linecap:round; fill:none" d="M 249.97 746.857C 249.97 747.17 249.773 747.462 249.46 747.567"/>
<path style="stroke:#00ff00; stroke-width:0.850394; stroke-linejoin:round; stroke-linecap:round; fill:none" d="M 249.46 747.567C 248.311 747.953 247.109 748.149 245.886 748.149"/>
<path style="stroke:#00ff00; stroke-width:0.850394; stroke-linejoin:round; stroke-linecap:round; fill:none" d="M 245.886 748.149C 239.703 748.149 234.673 743.119 234.673 736.936"/>
<path style="stroke:#00ff00; stroke-width:0.850394; stroke-linejoin:round; stroke-linecap:round; fill:none" d="M 234.673 736.936C 234.673 734.307 235.581 731.806 237.24 729.8"/>
<path style="stroke:#00ff00; stroke-width:0.850394; stroke-linejoin:round; stroke-linecap:round; fill:none" d="M 237.24 729.8L 236.928 729.58"/>
<path style="stroke:#00ff00; stroke-width:0.850394; stroke-linejoin:round; stroke-linecap:round; fill:none" d="M 236.928 729.58C 236.601 729.35 236.513 728.904 236.728 728.567"/>
<path style="stroke:#00ff00; stroke-width:0.850394; stroke-linejoin:round; stroke-linecap:round; fill:none" d="M 236.728 728.567C 236.942 728.229 237.384 728.12 237.73 728.318"/>
<path style="stroke:#00ff00; stroke-width:0.850394; stroke-linejoin:round; stroke-linecap:round; fill:none" d="M 237.73 728.318C 241.632 730.548 248.667 733.499 250.939 731.925"/>
<path style="stroke:#00ff00; stroke-width:0.850394; stroke-linejoin:round; stroke-linecap:round; fill:none" d="M 250.939 731.925C 251.612 731.458 251.865 730.523 251.689 729.143"/>
<path style="stroke:#00ff00; stroke-width:0.850394; stroke-linejoin:round; stroke-linecap:round; fill:none" d="M 251.689 729.143C 250.005 727.884 248.004 727.22 245.886 727.22"/>
<path style="stroke:#00ff00; stroke-width:0.850394; stroke-linejoin:round; stroke-linecap:round; fill:none" d="M 245.886 727.22C 244.017 727.22 242.202 727.752 240.637 728.758"/>
<path style="stroke:#00ff00; stroke-width:0.850394; stroke-linejoin:round; stroke-linecap:round; fill:none" d="M 240.637 728.758C 240.29 728.981 239.827 728.881 239.603 728.533"/>
<path style="stroke:#00ff00; stroke-width:0.850394; stroke-linejoin:round; stroke-linecap:round; fill:none" d="M 239.603 728.533C 239.38 728.185 239.48 727.722 239.828 727.499"/>
<path style="stroke:#00ff00; stroke-width:0.850394; stroke-linejoin:round; stroke-linecap:round; fill:none" d="M 239.828 727.499C 241.635 726.337 243.729 725.723 245.886 725.723"/>
<path style="stroke:#00ff00; stroke-width:0.850394; stroke-linejoin:round; stroke-linecap:round; fill:none" d="M 245.886 725.723C 248.444 725.723 250.852 726.562 252.852 728.149"/>
<path style="stroke:#00ff00; stroke-width:0.850394; stroke-linejoin:round; stroke-linecap:round; fill:none" d="M 249.42 485.435L 237.055 480.796L 237.055 479.585L 237.054 475.834L 254.786 475.834L 254.788 479.585L 243.319 479.585L 254.788 483.904L 254.788 487.002L 254.785 487.002L 254.785 487.022L 243.315 491.34L 254.785 491.34L 254.786 495.091L 237.054 495.091L 237.052 491.34L 237.052 490.13L 249.42 485.489L 249.42 485.435z"/>
<path style="stroke:#00ff00; stroke-width:0.850394; stroke-linejoin:round; stroke-linecap:round; fill:none" d="M 245.695 462.79C 241.714 462.514 241.714 462.514 241.714 468.798"/>
<path style="stroke:#00ff00; stroke-width:0.850394; stroke-linejoin:round; stroke-linecap:round; fill:none" d="M 241.714 468.798C 241.714 474.398 241.714 474.398 245.64 474.232"/>
<path style="stroke:#00ff00; stroke-width:0.850394; stroke-linejoin:round; stroke-linecap:round; fill:none" d="M 245.64 474.232L 245.922 470.682"/>
<path style="stroke:#00ff00; stroke-width:0.850394; stroke-linejoin:round; stroke-linecap:round; fill:none" d="M 245.922 470.682C 244.983 470.589 244.711 469.667 244.619 469.211"/>
<path style="stroke:#00ff00; stroke-width:0.850394; stroke-linejoin:round; stroke-linecap:round; fill:none" d="M 244.619 469.211C 244.595 469.072 244.578 468.917 244.58 468.738"/>
<path style="stroke:#00ff00; stroke-width:0.850394; stroke-linejoin:round; stroke-linecap:round; fill:none" d="M 244.58 468.738C 244.592 467.351 245.167 466.729 246.06 466.63"/>
<path style="stroke:#00ff00; stroke-width:0.850394; stroke-linejoin:round; stroke-linecap:round; fill:none" d="M 246.06 466.63C 246.382 466.591 246.758 466.581 247.187 466.581"/>
<path style="stroke:#00ff00; stroke-width:0.850394; stroke-linejoin:round; stroke-linecap:round; fill:none" d="M 247.187 466.581C 246.367 474.673 246.367 474.673 251.116 474.673"/>
<path style="stroke:#00ff00; stroke-width:0.850394; stroke-linejoin:round; stroke-linecap:round; fill:none" d="M 251.116 474.673C 255.043 474.935 255.043 474.935 255.043 470.12"/>
<path style="stroke:#00ff00; stroke-width:0.850394; stroke-linejoin:round; stroke-linecap:round; fill:none" d="M 255.043 470.12C 255.057 467.681 255.057 467.681 253.265 466.351"/>
<path style="stroke:#00ff00; stroke-width:0.850394; stroke-linejoin:round; stroke-linecap:round; fill:none" d="M 253.265 466.351C 254.263 466.101 254.263 466.101 254.786 465.722"/>
<path style="stroke:#00ff00; stroke-width:0.850394; stroke-linejoin:round; stroke-linecap:round; fill:none" d="M 254.786 465.722L 254.786 461.977"/>
<path style="stroke:#00ff00; stroke-width:0.850394; stroke-linejoin:round; stroke-linecap:round; fill:none" d="M 254.786 461.977C 253.881 462.713 253.881 462.713 250.924 462.789"/>
<path style="stroke:#00ff00; stroke-width:0.850394; stroke-linejoin:round; stroke-linecap:round; fill:none" d="M 250.924 462.789L 245.695 462.79"/>
<path style="stroke:#00ff00; stroke-width:0.850394; stroke-linejoin:round; stroke-linecap:round; fill:none" d="M 251.328 466.581C 252.282 467.25 252.745 470.66 250.952 470.66"/>
<path style="stroke:#00ff00; stroke-width:0.850394; stroke-linejoin:round; stroke-linecap:round; fill:none" d="M 250.952 470.66C 249.159 470.66 249.159 470.66 249.323 468.329"/>
<path style="stroke:#00ff00; stroke-width:0.850394; stroke-linejoin:round; stroke-linecap:round; fill:none" d="M 249.323 468.329L 249.323 466.581"/>
<path style="stroke:#00ff00; stroke-width:0.850394; stroke-linejoin:round; stroke-linecap:round; fill:none" d="M 249.323 466.581L 251.328 466.581"/>
<path style="stroke:#00ff00; stroke-width:0.850394; stroke-linejoin:round; stroke-linecap:round; fill:none" d="M 247.197 452.911L 247.188 452.901"/>
<path style="stroke:#00ff00; stroke-width:0.850394; stroke-linejoin:round; stroke-linecap:round; fill:none" d="M 247.188 452.901C 247.185 452.927 247.182 452.95 247.178 452.975"/>
<path style="stroke:#00ff00; stroke-width:0.850394; stroke-linejoin:round; stroke-linecap:round; fill:none" d="M 247.178 452.975C 247.043 453.443 246.953 453.861 246.897 454.162"/>
<path style="stroke:#00ff00; stroke-width:0.850394; stroke-linejoin:round; stroke-linecap:round; fill:none" d="M 246.897 454.162L 246.897 454.162"/>
<path style="stroke:#00ff00; stroke-width:0.850394; stroke-linejoin:round; stroke-linecap:round; fill:none" d="M 246.897 454.162C 246.897 454.163 246.897 454.165 246.896 454.166"/>
<path style="stroke:#00ff00; stroke-width:0.850394; stroke-linejoin:round; stroke-linecap:round; fill:none" d="M 246.896 454.166C 246.842 454.467 246.842 454.467 246.82 454.653"/>
<path style="stroke:#00ff00; stroke-width:0.850394; stroke-linejoin:round; stroke-linecap:round; fill:none" d="M 246.82 454.653L 246.822 454.654"/>
<path style="stroke:#00ff00; stroke-width:0.850394; stroke-linejoin:round; stroke-linecap:round; fill:none" d="M 246.822 454.654C 246.364 457.273 246.364 457.273 245.339 457.066"/>
<path style="stroke:#00ff00; stroke-width:0.850394; stroke-linejoin:round; stroke-linecap:round; fill:none" d="M 245.339 457.066C 244.184 457.269 244.184 457.269 244.187 455.205"/>
<path style="stroke:#00ff00; stroke-width:0.850394; stroke-linejoin:round; stroke-linecap:round; fill:none" d="M 244.187 455.205C 244.19 453.077 244.19 453.077 245.895 452.947"/>
<path style="stroke:#00ff00; stroke-width:0.850394; stroke-linejoin:round; stroke-linecap:round; fill:none" d="M 245.895 452.947L 245.609 449.038"/>
<path style="stroke:#00ff00; stroke-width:0.850394; stroke-linejoin:round; stroke-linecap:round; fill:none" d="M 245.609 449.038C 241.714 449.04 241.714 449.04 241.714 455.141"/>
<path style="stroke:#00ff00; stroke-width:0.850394; stroke-linejoin:round; stroke-linecap:round; fill:none" d="M 241.714 455.141C 241.714 461.344 241.714 461.344 245.555 461.373"/>
<path style="stroke:#00ff00; stroke-width:0.850394; stroke-linejoin:round; stroke-linecap:round; fill:none" d="M 245.555 461.373C 248.475 461.373 249.374 457.471 249.601 456.093"/>
<path style="stroke:#00ff00; stroke-width:0.850394; stroke-linejoin:round; stroke-linecap:round; fill:none" d="M 249.601 456.093C 249.601 456.09 249.602 456.088 249.602 456.086"/>
<path style="stroke:#00ff00; stroke-width:0.850394; stroke-linejoin:round; stroke-linecap:round; fill:none" d="M 249.602 456.086C 250.126 453.186 250.126 453.186 251.126 453.393"/>
<path style="stroke:#00ff00; stroke-width:0.850394; stroke-linejoin:round; stroke-linecap:round; fill:none" d="M 251.126 453.393C 252.371 453.247 252.371 453.247 252.371 455.373"/>
<path style="stroke:#00ff00; stroke-width:0.850394; stroke-linejoin:round; stroke-linecap:round; fill:none" d="M 252.371 455.373C 252.371 457.497 252.371 457.497 250.755 457.699"/>
<path style="stroke:#00ff00; stroke-width:0.850394; stroke-linejoin:round; stroke-linecap:round; fill:none" d="M 250.755 457.699L 250.95 461.724"/>
<path style="stroke:#00ff00; stroke-width:0.850394; stroke-linejoin:round; stroke-linecap:round; fill:none" d="M 250.95 461.724C 255.102 461.729 255.102 461.729 255.102 455.445"/>
<path style="stroke:#00ff00; stroke-width:0.850394; stroke-linejoin:round; stroke-linecap:round; fill:none" d="M 255.102 455.445C 255.102 449.058 255.102 449.058 251.004 449.02"/>
<path style="stroke:#00ff00; stroke-width:0.850394; stroke-linejoin:round; stroke-linecap:round; fill:none" d="M 251.004 449.02C 248.77 449.02 247.69 451.257 247.197 452.911"/>
<path style="stroke:#00ff00; stroke-width:0.850394; stroke-linejoin:round; stroke-linecap:round; fill:none" d="M 237.051 443.823L 237.051 447.793L 254.784 447.793L 254.784 443.823L 237.051 443.823z"/>
<path style="stroke:#00ff00; stroke-width:0.850394; stroke-linejoin:round; stroke-linecap:round; fill:none" d="M 241.714 435.961C 241.714 440.496 244.754 442.546 248.378 442.546"/>
<path style="stroke:#00ff00; stroke-width:0.850394; stroke-linejoin:round; stroke-linecap:round; fill:none" d="M 248.378 442.546C 252.002 442.546 255.042 440.497 255.042 435.961"/>
<path style="stroke:#00ff00; stroke-width:0.850394; stroke-linejoin:round; stroke-linecap:round; fill:none" d="M 255.042 435.961C 255.042 431.426 252.036 429.356 248.378 429.356"/>
<path style="stroke:#00ff00; stroke-width:0.850394; stroke-linejoin:round; stroke-linecap:round; fill:none" d="M 248.378 429.356C 244.72 429.356 241.714 431.426 241.714 435.961"/>
<path style="stroke:#00ff00; stroke-width:0.850394; stroke-linejoin:round; stroke-linecap:round; fill:none" d="M 252.146 435.953C 252.158 436.404 251.979 438.253 248.264 438.253"/>
<path style="stroke:#00ff00; stroke-width:0.850394; stroke-linejoin:round; stroke-linecap:round; fill:none" d="M 248.264 438.253C 244.548 438.253 244.369 436.404 244.381 435.953"/>
<path style="stroke:#00ff00; stroke-width:0.850394; stroke-linejoin:round; stroke-linecap:round; fill:none" d="M 244.381 435.953C 244.369 435.501 244.548 433.652 248.264 433.652"/>
<path style="stroke:#00ff00; stroke-width:0.850394; stroke-linejoin:round; stroke-linecap:round; fill:none" d="M 248.264 433.652C 251.979 433.652 252.158 435.501 252.146 435.953"/>
<path style="stroke:#00ff00; stroke-width:0.850394; stroke-linejoin:round; stroke-linecap:round; fill:none" d="M 250.213 416.306L 241.983 414.347L 241.983 410.245L 254.774 413.331L 254.774 418.252L 247.28 419.806L 247.28 419.809L 254.774 421.363L 254.774 426.284L 241.983 429.37L 241.983 425.216L 250.213 423.343L 241.983 421.384L 241.983 418.179L 250.213 416.306z"/>
<path style="stroke:#00ff00; stroke-width:0.850394; stroke-linejoin:round; stroke-linecap:round; fill:none" d="M 229.055 517.403C 229.055 526.663 236.561 534.169 245.821 534.169"/>
<path style="stroke:#00ff00; stroke-width:0.850394; stroke-linejoin:round; stroke-linecap:round; fill:none" d="M 245.821 534.169C 255.081 534.169 262.587 526.663 262.587 517.403"/>
<path style="stroke:#00ff00; stroke-width:0.850394; stroke-linejoin:round; stroke-linecap:round; fill:none" d="M 262.587 517.403C 262.587 508.143 255.081 500.637 245.821 500.637"/>
<path style="stroke:#00ff00; stroke-width:0.850394; stroke-linejoin:round; stroke-linecap:round; fill:none" d="M 245.821 500.637C 236.561 500.637 229.055 508.143 229.055 517.403"/>
<path style="stroke:#00ff00; stroke-width:0.850394; stroke-linejoin:round; stroke-linecap:round; fill:none" d="M 252.852 508.616C 252.998 508.732 253.095 508.898 253.125 509.083"/>
<path style="stroke:#00ff00; stroke-width:0.850394; stroke-linejoin:round; stroke-linecap:round; fill:none" d="M 253.125 509.083C 253.474 511.241 253.025 512.768 251.791 513.623"/>
<path style="stroke:#00ff00; stroke-width:0.850394; stroke-linejoin:round; stroke-linecap:round; fill:none" d="M 251.791 513.623C 250.077 514.811 247.11 514.329 244.272 513.387"/>
<path style="stroke:#00ff00; stroke-width:0.850394; stroke-linejoin:round; stroke-linecap:round; fill:none" d="M 244.272 513.387L 253.845 520.126"/>
<path style="stroke:#00ff00; stroke-width:0.850394; stroke-linejoin:round; stroke-linecap:round; fill:none" d="M 253.845 520.126C 254.05 520.27 254.163 520.501 254.163 520.739"/>
<path style="stroke:#00ff00; stroke-width:0.850394; stroke-linejoin:round; stroke-linecap:round; fill:none" d="M 254.163 520.739C 254.163 520.842 254.142 520.946 254.097 521.046"/>
<path style="stroke:#00ff00; stroke-width:0.850394; stroke-linejoin:round; stroke-linecap:round; fill:none" d="M 254.097 521.046C 253.949 521.373 253.59 521.549 253.241 521.466"/>
<path style="stroke:#00ff00; stroke-width:0.850394; stroke-linejoin:round; stroke-linecap:round; fill:none" d="M 253.241 521.466L 241.51 518.673"/>
<path style="stroke:#00ff00; stroke-width:0.850394; stroke-linejoin:round; stroke-linecap:round; fill:none" d="M 241.51 518.673L 251.456 525.361"/>
<path style="stroke:#00ff00; stroke-width:0.850394; stroke-linejoin:round; stroke-linecap:round; fill:none" d="M 251.456 525.361C 254.059 523.538 255.602 520.597 255.602 517.403"/>
<path style="stroke:#00ff00; stroke-width:0.850394; stroke-linejoin:round; stroke-linecap:round; fill:none" d="M 255.602 517.403C 255.602 515.393 254.994 513.465 253.843 511.826"/>
<path style="stroke:#00ff00; stroke-width:0.850394; stroke-linejoin:round; stroke-linecap:round; fill:none" d="M 253.843 511.826C 253.606 511.488 253.687 511.021 254.026 510.784"/>
<path style="stroke:#00ff00; stroke-width:0.850394; stroke-linejoin:round; stroke-linecap:round; fill:none" d="M 254.026 510.784C 254.364 510.546 254.831 510.628 255.068 510.966"/>
<path style="stroke:#00ff00; stroke-width:0.850394; stroke-linejoin:round; stroke-linecap:round; fill:none" d="M 255.068 510.966C 256.397 512.858 257.099 515.084 257.099 517.403"/>
<path style="stroke:#00ff00; stroke-width:0.850394; stroke-linejoin:round; stroke-linecap:round; fill:none" d="M 257.099 517.403C 257.099 520.897 255.497 524.128 252.772 526.247"/>
<path style="stroke:#00ff00; stroke-width:0.850394; stroke-linejoin:round; stroke-linecap:round; fill:none" d="M 252.772 526.247L 252.947 526.364"/>
<path style="stroke:#00ff00; stroke-width:0.850394; stroke-linejoin:round; stroke-linecap:round; fill:none" d="M 252.947 526.364C 253.29 526.595 253.381 527.06 253.151 527.402"/>
<path style="stroke:#00ff00; stroke-width:0.850394; stroke-linejoin:round; stroke-linecap:round; fill:none" d="M 253.151 527.402C 252.92 527.746 252.455 527.837 252.112 527.606"/>
<path style="stroke:#00ff00; stroke-width:0.850394; stroke-linejoin:round; stroke-linecap:round; fill:none" d="M 252.112 527.606L 237.245 517.608"/>
<path style="stroke:#00ff00; stroke-width:0.850394; stroke-linejoin:round; stroke-linecap:round; fill:none" d="M 237.245 517.608C 236.945 517.406 236.833 517.019 236.977 516.687"/>
<path style="stroke:#00ff00; stroke-width:0.850394; stroke-linejoin:round; stroke-linecap:round; fill:none" d="M 236.977 516.687C 237.123 516.355 237.484 516.175 237.836 516.259"/>
<path style="stroke:#00ff00; stroke-width:0.850394; stroke-linejoin:round; stroke-linecap:round; fill:none" d="M 237.836 516.259L 249.799 519.108"/>
<path style="stroke:#00ff00; stroke-width:0.850394; stroke-linejoin:round; stroke-linecap:round; fill:none" d="M 249.799 519.108L 238.468 511.131"/>
<path style="stroke:#00ff00; stroke-width:0.850394; stroke-linejoin:round; stroke-linecap:round; fill:none" d="M 238.468 511.131C 236.983 512.884 236.17 515.086 236.17 517.403"/>
<path style="stroke:#00ff00; stroke-width:0.850394; stroke-linejoin:round; stroke-linecap:round; fill:none" d="M 236.17 517.403C 236.17 522.76 240.529 527.119 245.886 527.119"/>
<path style="stroke:#00ff00; stroke-width:0.850394; stroke-linejoin:round; stroke-linecap:round; fill:none" d="M 245.886 527.119C 246.946 527.119 247.988 526.95 248.984 526.615"/>
<path style="stroke:#00ff00; stroke-width:0.850394; stroke-linejoin:round; stroke-linecap:round; fill:none" d="M 248.984 526.615C 249.375 526.483 249.8 526.694 249.931 527.086"/>
<path style="stroke:#00ff00; stroke-width:0.850394; stroke-linejoin:round; stroke-linecap:round; fill:none" d="M 249.931 527.086C 249.958 527.165 249.97 527.245 249.97 527.324"/>
<path style="stroke:#00ff00; stroke-width:0.850394; stroke-linejoin:round; stroke-linecap:round; fill:none" d="M 249.97 527.324C 249.97 527.637 249.773 527.929 249.46 528.034"/>
<path style="stroke:#00ff00; stroke-width:0.850394; stroke-linejoin:round; stroke-linecap:round; fill:none" d="M 249.46 528.034C 248.311 528.42 247.109 528.616 245.886 528.616"/>
<path style="stroke:#00ff00; stroke-width:0.850394; stroke-linejoin:round; stroke-linecap:round; fill:none" d="M 245.886 528.616C 239.703 528.616 234.673 523.586 234.673 517.403"/>
<path style="stroke:#00ff00; stroke-width:0.850394; stroke-linejoin:round; stroke-linecap:round; fill:none" d="M 234.673 517.403C 234.673 514.774 235.581 512.273 237.24 510.267"/>
<path style="stroke:#00ff00; stroke-width:0.850394; stroke-linejoin:round; stroke-linecap:round; fill:none" d="M 237.24 510.267L 236.928 510.047"/>
<path style="stroke:#00ff00; stroke-width:0.850394; stroke-linejoin:round; stroke-linecap:round; fill:none" d="M 236.928 510.047C 236.601 509.817 236.513 509.371 236.728 509.034"/>
<path style="stroke:#00ff00; stroke-width:0.850394; stroke-linejoin:round; stroke-linecap:round; fill:none" d="M 236.728 509.034C 236.942 508.696 237.384 508.587 237.73 508.785"/>
<path style="stroke:#00ff00; stroke-width:0.850394; stroke-linejoin:round; stroke-linecap:round; fill:none" d="M 237.73 508.785C 241.632 511.015 248.667 513.966 250.939 512.392"/>
<path style="stroke:#00ff00; stroke-width:0.850394; stroke-linejoin:round; stroke-linecap:round; fill:none" d="M 250.939 512.392C 251.612 511.926 251.865 510.99 251.689 509.61"/>
<path style="stroke:#00ff00; stroke-width:0.850394; stroke-linejoin:round; stroke-linecap:round; fill:none" d="M 251.689 509.61C 250.005 508.351 248.004 507.687 245.886 507.687"/>
<path style="stroke:#00ff00; stroke-width:0.850394; stroke-linejoin:round; stroke-linecap:round; fill:none" d="M 245.886 507.687C 244.017 507.687 242.202 508.219 240.637 509.225"/>
<path style="stroke:#00ff00; stroke-width:0.850394; stroke-linejoin:round; stroke-linecap:round; fill:none" d="M 240.637 509.225C 240.29 509.449 239.827 509.348 239.603 509"/>
<path style="stroke:#00ff00; stroke-width:0.850394; stroke-linejoin:round; stroke-linecap:round; fill:none" d="M 239.603 509C 239.38 508.652 239.48 508.189 239.828 507.966"/>
<path style="stroke:#00ff00; stroke-width:0.850394; stroke-linejoin:round; stroke-linecap:round; fill:none" d="M 239.828 507.966C 241.635 506.804 243.729 506.19 245.886 506.19"/>
<path style="stroke:#00ff00; stroke-width:0.850394; stroke-linejoin:round; stroke-linecap:round; fill:none" d="M 245.886 506.19C 248.444 506.19 250.852 507.029 252.852 508.616"/>
<path style="stroke:#000000; stroke-width:0.850394; stroke-linejoin:round; stroke-linecap:round; fill:none" d="M 763.848 460.493L 763.848 569.281L 684.07 569.281L 684.07 460.493L 763.848 460.493z"/>
<path style="stroke:#000000; stroke-width:0.850394; stroke-linejoin:round; stroke-linecap:round; fill:none" d="M 709.076 496.784L 738.843 496.784"/>
<path style="stroke:#000000; stroke-width:0.850394; stroke-linejoin:round; stroke-linecap:round; fill:none" d="M 742.119 493.508L 742.119 486.95"/>
<path style="stroke:#000000; stroke-width:0.850394; stroke-linejoin:round; stroke-linecap:round; fill:none" d="M 738.843 483.673L 709.076 483.673"/>
<path style="stroke:#000000; stroke-width:0.850394; stroke-linejoin:round; stroke-linecap:round; fill:none" d="M 705.8 486.95L 705.8 493.508"/>
<path style="stroke:#000000; stroke-width:0.850394; stroke-linejoin:round; stroke-linecap:round; fill:none" d="M 709.076 546.102L 738.843 546.102"/>
<path style="stroke:#000000; stroke-width:0.850394; stroke-linejoin:round; stroke-linecap:round; fill:none" d="M 742.119 542.825L 742.119 536.267"/>
<path style="stroke:#000000; stroke-width:0.850394; stroke-linejoin:round; stroke-linecap:round; fill:none" d="M 738.843 532.99L 709.076 532.99"/>
<path style="stroke:#000000; stroke-width:0.850394; stroke-linejoin:round; stroke-linecap:round; fill:none" d="M 705.8 536.267L 705.8 542.825"/>
<path style="stroke:#00ffff; stroke-width:0.850394; stroke-linejoin:round; stroke-linecap:round; fill:none" d="M 696.101 490.229C 696.101 489.593 695.585 489.077 694.949 489.077C 694.314 489.077 693.798 489.593 693.798 490.229C 693.798 490.864 694.314 491.38 694.949 491.38C 695.585 491.38 696.101 490.864 696.101 490.229z"/>
<path style="stroke:#00ffff; stroke-width:0.850394; stroke-linejoin:round; stroke-linecap:round; fill:none" d="M 754.121 490.229C 754.121 489.593 753.605 489.077 752.97 489.077C 752.334 489.077 751.818 489.593 751.818 490.229C 751.818 490.864 752.334 491.38 752.97 491.38C 753.605 491.38 754.121 490.864 754.121 490.229z"/>
<path style="stroke:#00ffff; stroke-width:0.850394; stroke-linejoin:round; stroke-linecap:round; fill:none" d="M 696.101 539.546C 696.101 538.91 695.585 538.395 694.949 538.395C 694.314 538.395 693.798 538.91 693.798 539.546C 693.798 540.181 694.314 540.697 694.949 540.697C 695.585 540.697 696.101 540.181 696.101 539.546z"/>
<path style="stroke:#00ffff; stroke-width:0.850394; stroke-linejoin:round; stroke-linecap:round; fill:none" d="M 754.121 539.546C 754.121 538.91 753.605 538.395 752.97 538.395C 752.334 538.395 751.818 538.91 751.818 539.546C 751.818 540.181 752.334 540.697 752.97 540.697C 753.605 540.697 754.121 540.181 754.121 539.546z"/>
<path style="stroke:#000000; stroke-width:0.850394; stroke-linejoin:round; stroke-linecap:round; fill:none" d="M 709.076 483.673C 708.656 483.248 708.073 482.985 707.428 482.985C 706.149 482.985 705.111 484.023 705.111 485.301C 705.111 485.946 705.375 486.529 705.8 486.949"/>
<path style="stroke:#000000; stroke-width:0.850394; stroke-linejoin:round; stroke-linecap:round; fill:none" d="M 705.8 493.508C 705.375 493.928 705.111 494.512 705.111 495.156C 705.111 496.435 706.149 497.473 707.428 497.473C 708.073 497.473 708.656 497.209 709.076 496.784"/>
<path style="stroke:#000000; stroke-width:0.850394; stroke-linejoin:round; stroke-linecap:round; fill:none" d="M 742.119 486.949C 742.544 486.529 742.808 485.946 742.808 485.301C 742.808 484.023 741.77 482.985 740.491 482.985C 739.846 482.985 739.263 483.248 738.843 483.673"/>
<path style="stroke:#000000; stroke-width:0.850394; stroke-linejoin:round; stroke-linecap:round; fill:none" d="M 738.843 496.784C 739.263 497.209 739.846 497.473 740.491 497.473C 741.77 497.473 742.808 496.435 742.808 495.156C 742.808 494.512 742.544 493.928 742.119 493.508"/>
<path style="stroke:#000000; stroke-width:0.850394; stroke-linejoin:round; stroke-linecap:round; fill:none" d="M 709.076 532.991C 708.656 532.565 708.073 532.302 707.428 532.302C 706.149 532.302 705.111 533.34 705.111 534.619C 705.111 535.263 705.375 535.846 705.8 536.267"/>
<path style="stroke:#000000; stroke-width:0.850394; stroke-linejoin:round; stroke-linecap:round; fill:none" d="M 705.8 542.825C 705.375 543.245 705.111 543.829 705.111 544.473C 705.111 545.752 706.149 546.79 707.428 546.79C 708.073 546.79 708.656 546.526 709.076 546.101"/>
<path style="stroke:#000000; stroke-width:0.850394; stroke-linejoin:round; stroke-linecap:round; fill:none" d="M 742.119 536.267C 742.544 535.846 742.808 535.263 742.808 534.619C 742.808 533.34 741.77 532.302 740.491 532.302C 739.846 532.302 739.263 532.565 738.843 532.991"/>
<path style="stroke:#000000; stroke-width:0.850394; stroke-linejoin:round; stroke-linecap:round; fill:none" d="M 738.843 546.101C 739.263 546.526 739.846 546.79 740.491 546.79C 741.77 546.79 742.808 545.752 742.808 544.473C 742.808 543.829 742.544 543.245 742.119 542.825"/>
</g>
</svg>